<mxfile host="app.diagrams.net" modified="2023-05-24T12:15:44.468Z" agent="5.0 (Windows NT 10.0; Win64; x64) AppleWebKit/537.36 (KHTML, like Gecko) Chrome/112.0.0.0 Safari/537.36" etag="8ee_5O6s-kHBLyrpARMI" version="20.8.20" type="github">
  <diagram name="第 1 页" id="_LmHi21ieHVFVFbyD48o">
    <mxGraphModel dx="875" dy="526" grid="0" gridSize="10" guides="1" tooltips="1" connect="1" arrows="1" fold="1" page="1" pageScale="1" pageWidth="827" pageHeight="1169" math="0" shadow="0">
      <root>
        <mxCell id="0" />
        <mxCell id="1" parent="0" />
      </root>
    </mxGraphModel>
  </diagram>
</mxfile>
